<svg xmlns="http://www.w3.org/2000/svg" version="1.0" width="804.000000pt" height="368.000000pt" viewBox="0 0 804.000000 368.000000" preserveAspectRatio="xMidYMid meet">

<g transform="translate(0.000000,368.000000) scale(0.100000,-0.100000)" fill="#ffffff" stroke="none">
<path d="M4060 1790 l0 -1080 135 0 135 0 0 106 0 107 34 -45 c47 -61 155 -132 251 -164 170 -56 350 -41 525 43 81 39 108 59 181 133 70 70 95 103 127 171 72 149 96 307 73 469 -56 381 -358 628 -741 607 -169 -9 -302 -67 -400 -174 l-50 -55 0 481 0 481 -135 0 -135 0 0 -1080z m865 64 c113 -29 211 -104 263 -202 132 -248 46 -540 -194 -659 -62 -30 -86 -36 -161 -40 -158 -9 -279 34 -372 132 -166 175 -170 464 -10 639 51 56 142 110 218 132 65 17 186 17 256 -2z" fill="#ffffff"/>
<path d="M5930 2788 c-106 -54 -129 -188 -47 -277 79 -85 250 -63 305 40 84 157 -94 320 -258 237z" fill="#ffffff"/>
<path d="M740 2650 l0 -130 315 0 315 0 0 -905 0 -905 140 0 140 0 2 903 3 902 313 3 312 2 0 130 0 130 -770 0 -770 0 0 -130z" fill="#ffffff"/>
<path d="M2800 2125 c-277 -56 -486 -249 -557 -515 -24 -90 -24 -301 0 -390 41 -154 138 -304 250 -387 127 -94 258 -141 422 -150 222 -12 418 61 570 212 130 131 194 280 203 473 6 134 -8 226 -49 330 -70 176 -216 320 -394 388 -141 53 -305 67 -445 39z m332 -284 c205 -79 322 -299 279 -523 -59 -300 -385 -458 -669 -323 -231 110 -320 402 -196 646 49 98 138 169 264 211 77 26 241 20 322 -11z" fill="#ffffff"/>
<path d="M5890 1410 l0 -700 135 0 135 0 0 700 0 700 -135 0 -135 0 0 -700z" fill="#ffffff"/>
<path d="M6751 1048 c-159 -28 -206 -245 -72 -333 141 -94 334 20 308 182 -17 105 -121 171 -236 151z" fill="#ffffff"/>
</g>
</svg>